{"glyphs":{":":{"x_min":0,"x_max":600,"ha":600,"o":"m 381 423 l 398 423 q 422 423 437 408 q 452 393 452 370 q 452 345 436 324 q 419 303 394 294 q 384 290 353 290 q 329 290 314 305 q 299 320 299 343 q 299 374 324 398 q 349 423 381 423 z m 316 118 l 334 118 q 357 118 373 103 q 388 88 388 65 q 388 34 363 10 q 338 -15 306 -15 l 288 -15 q 264 -15 249 0 q 234 15 234 38 q 234 69 259 94 q 284 118 316 118 z"},"$":{"x_min":0,"x_max":600,"ha":600,"o":"m 403 585 l 414 637 q 417 652 424 658 q 431 665 440 665 q 448 665 452 660 q 457 655 457 649 q 457 645 455 637 l 444 585 q 477 582 497 574 q 517 566 542 547 q 545 560 552 565 q 559 571 568 571 q 575 571 579 567 q 584 562 584 556 q 584 552 582 544 l 569 483 q 566 468 559 462 q 552 456 542 456 q 536 456 531 460 q 526 464 526 468 l 527 487 q 527 503 502 521 q 468 546 417 546 q 354 546 310 507 q 266 467 266 424 q 266 392 289 377 q 312 361 380 348 q 447 334 470 325 q 501 312 518 290 q 535 268 535 235 q 535 169 481 117 q 427 65 332 55 l 306 -65 q 303 -81 296 -87 q 289 -93 279 -93 q 272 -93 268 -89 q 263 -84 263 -78 q 263 -74 265 -65 l 291 55 q 216 60 175 104 q 169 79 164 74 q 156 66 146 66 q 139 66 134 70 q 129 75 129 81 q 129 85 131 93 l 148 173 q 151 188 158 195 q 166 201 175 201 q 181 201 186 197 q 191 192 191 190 l 189 161 q 189 156 202 141 q 220 118 246 108 q 279 95 320 95 q 397 95 445 135 q 493 175 493 225 q 493 247 480 263 q 468 279 441 290 q 425 296 366 308 q 285 324 254 347 q 224 369 224 415 q 224 474 274 525 q 324 576 403 585 z"},"?":{"x_min":0,"x_max":600,"ha":600,"o":"m 376 251 l 367 209 q 364 194 357 188 q 350 182 340 182 q 333 182 329 187 q 324 191 324 197 q 324 201 326 209 l 340 278 q 470 323 511 365 q 540 394 540 438 q 540 485 509 515 q 478 545 423 545 q 390 545 360 538 q 330 530 284 510 l 275 468 q 272 453 265 447 q 258 441 249 441 q 242 441 237 445 q 232 450 232 456 q 232 460 234 468 l 249 537 q 333 571 356 577 q 396 586 435 586 q 506 586 544 549 q 582 512 582 451 q 582 390 545 346 q 508 302 376 251 z m 299 87 l 340 87 q 358 87 370 75 q 381 64 381 47 q 381 22 362 4 q 343 -15 319 -15 l 277 -15 q 259 -15 248 -3 q 236 8 236 25 q 236 50 255 68 q 274 87 299 87 z"},"<":{"x_min":0,"x_max":600,"ha":600,"o":"m 108 285 l 604 532 q 617 538 622 538 q 629 538 634 533 q 638 528 638 521 q 638 506 617 496 l 192 285 l 526 74 q 539 66 539 57 q 539 47 531 40 q 523 32 514 32 q 508 32 499 38 z"},"'":{"x_min":0,"x_max":600,"ha":600,"o":"m 365 613 l 495 613 l 406 356 q 399 335 389 328 q 380 320 368 320 q 357 320 351 326 q 345 333 345 347 q 345 351 345 356 z"},"=":{"x_min":0,"x_max":600,"ha":600,"o":"m 596 339 l 148 339 q 135 339 130 344 q 125 348 125 356 q 125 366 133 373 q 142 381 157 381 l 604 381 q 618 381 623 376 q 628 372 628 364 q 628 354 620 347 q 612 339 596 339 z m 564 192 l 117 192 q 104 192 99 197 q 94 201 94 208 q 94 219 102 226 q 110 233 126 233 l 573 233 q 587 233 591 229 q 597 225 597 217 q 597 207 589 200 q 581 192 564 192 z"},"a":{"x_min":0,"x_max":600,"ha":600,"o":"m 418 0 l 431 59 q 326 -16 224 -16 q 158 -16 125 13 q 92 42 92 86 q 92 153 150 201 q 223 261 340 261 q 396 261 471 246 l 485 312 q 486 320 486 327 q 486 355 464 373 q 434 396 377 396 q 330 396 232 367 q 221 363 216 363 q 209 363 205 368 q 201 372 201 379 q 201 389 208 396 q 215 403 263 416 q 347 438 388 438 q 458 438 493 407 q 529 376 529 337 q 529 325 526 312 l 468 41 l 523 41 q 537 41 542 37 q 547 33 547 25 q 547 15 539 7 q 531 0 515 0 z m 462 204 q 407 220 336 220 q 238 220 179 175 q 134 141 134 97 q 134 65 157 45 q 181 25 229 25 q 282 25 333 46 q 383 66 442 114 z"},"L":{"x_min":0,"x_max":600,"ha":600,"o":"m 342 530 l 238 41 l 510 41 l 545 204 q 548 219 555 225 q 562 231 571 231 q 579 231 583 227 q 588 223 588 216 q 588 212 586 204 l 543 0 l 90 0 q 76 0 71 4 q 66 9 66 17 q 66 26 74 34 q 83 41 99 41 l 196 41 l 300 530 l 203 530 q 189 530 184 534 q 179 539 179 547 q 179 557 187 564 q 195 571 211 571 l 448 571 q 462 571 467 567 q 472 563 472 555 q 472 545 464 538 q 456 530 439 530 z"},"3":{"x_min":0,"x_max":600,"ha":600,"o":"m 456 333 q 499 312 520 277 q 541 243 541 204 q 541 157 507 103 q 474 50 413 18 q 352 -15 288 -15 q 213 -15 146 28 q 110 51 110 66 q 110 75 117 83 q 125 90 133 90 q 142 90 150 83 q 213 26 297 26 q 378 26 438 81 q 499 135 499 195 q 499 227 480 255 q 462 283 425 301 q 387 318 347 318 q 332 318 328 321 q 322 326 322 334 q 322 344 330 352 q 338 359 351 359 l 388 358 q 450 358 495 400 q 540 442 540 491 q 540 531 510 559 q 479 586 426 586 q 384 586 345 572 q 306 558 279 532 q 265 518 255 518 q 247 518 243 522 q 238 526 238 533 q 238 542 248 551 q 278 584 331 606 q 383 627 436 627 q 503 627 542 591 q 582 554 582 500 q 582 451 549 405 q 516 359 456 333 z"},";":{"x_min":0,"x_max":600,"ha":600,"o":"m 431 423 l 449 423 q 473 423 488 408 q 502 393 502 370 q 502 339 478 314 q 453 290 420 290 l 403 290 q 379 290 364 305 q 349 320 349 343 q 349 374 374 398 q 399 423 431 423 z m 301 147 l 430 147 l 244 -79 q 229 -96 223 -100 q 216 -104 208 -104 q 197 -104 191 -99 q 185 -93 185 -85 q 185 -77 191 -64 z"},"J":{"x_min":0,"x_max":600,"ha":600,"o":"m 573 530 l 496 168 q 480 93 413 38 q 345 -16 269 -16 q 222 -16 182 5 q 142 26 100 75 l 132 226 q 135 241 142 247 q 149 253 159 253 q 166 253 170 249 q 175 245 175 238 q 175 234 173 226 l 145 94 q 205 25 278 25 q 316 25 351 42 q 386 58 416 93 q 446 128 455 168 l 532 530 l 371 530 q 357 530 353 534 q 348 539 348 547 q 348 557 356 564 q 364 571 380 571 l 680 571 q 693 571 698 567 q 703 563 703 555 q 703 545 695 538 q 687 530 671 530 z"},"V":{"x_min":0,"x_max":600,"ha":600,"o":"m 331 0 l 273 0 l 180 530 l 148 530 q 137 530 133 532 q 129 534 127 538 q 125 542 125 547 q 125 553 129 559 q 133 565 139 568 q 145 571 157 571 l 309 571 q 320 571 324 570 q 328 568 330 564 q 333 560 333 555 q 333 548 329 542 q 325 536 319 533 q 313 530 300 530 l 222 530 l 309 41 l 312 41 l 604 530 l 525 530 q 514 530 510 532 q 506 534 504 538 q 501 542 501 547 q 501 553 506 559 q 510 565 516 568 q 521 571 534 571 l 687 571 q 697 571 701 570 q 705 568 708 564 q 710 560 710 555 q 710 548 706 542 q 702 536 696 533 q 690 530 678 530 l 646 530 z"},"\"":{"x_min":0,"x_max":600,"ha":600,"o":""},"7":{"x_min":0,"x_max":600,"ha":600,"o":"m 556 553 l 560 571 l 266 571 l 258 535 q 255 521 248 514 q 241 508 231 508 q 225 508 220 512 q 215 517 215 523 q 215 527 217 535 l 233 613 l 610 613 l 596 547 l 319 20 q 312 7 306 3 q 300 -1 292 -1 q 285 -1 281 3 q 276 8 276 15 q 276 21 283 32 z"},"S":{"x_min":0,"x_max":600,"ha":600,"o":"m 560 530 q 565 558 570 563 q 579 571 589 571 q 596 571 601 567 q 605 562 605 556 q 605 552 604 544 l 582 439 q 578 425 571 418 q 564 412 555 412 q 548 412 543 417 q 539 421 539 427 q 539 431 540 437 q 541 444 541 451 q 541 487 508 515 q 475 543 417 543 q 339 543 290 501 q 241 458 241 406 q 241 367 271 347 q 300 327 374 314 q 447 301 473 291 q 509 276 528 251 q 546 226 546 188 q 546 137 516 90 q 486 42 425 13 q 364 -16 299 -16 q 246 -16 207 1 q 167 18 143 51 l 138 27 q 135 13 127 6 q 120 0 111 0 q 104 0 99 4 q 95 9 95 15 q 95 20 96 27 l 121 141 q 124 156 131 162 q 138 168 147 168 q 154 168 159 164 q 164 160 164 154 q 164 150 162 144 q 161 137 161 130 q 161 88 199 56 q 237 25 308 25 q 361 25 409 48 q 457 70 481 106 q 504 142 504 178 q 504 205 490 224 q 476 244 447 255 q 428 263 362 275 q 275 290 237 317 q 199 345 199 397 q 199 469 263 527 q 327 584 423 584 q 466 584 500 571 q 535 558 560 530 z"},"}":{"x_min":0,"x_max":600,"ha":600,"o":"m 376 243 q 359 258 354 269 q 347 283 347 301 q 347 314 350 330 l 387 506 q 389 514 389 522 q 389 543 377 556 q 364 570 345 571 q 331 573 328 576 q 323 581 323 587 q 323 598 331 605 q 339 613 352 613 q 386 613 409 590 q 431 567 431 529 q 431 519 429 506 l 391 330 q 390 322 390 314 q 390 293 402 280 q 415 266 435 265 q 447 264 450 260 q 455 255 455 249 q 455 237 448 230 q 441 223 425 221 q 399 219 380 201 q 360 183 354 156 l 317 -20 q 307 -66 271 -97 q 235 -127 194 -127 q 184 -127 179 -122 q 174 -118 174 -110 q 174 -101 181 -94 q 188 -87 206 -85 q 231 -83 250 -64 q 270 -46 276 -20 l 313 156 q 319 186 333 205 q 347 224 376 243 z"},"Z":{"x_min":0,"x_max":600,"ha":600,"o":"m 499 0 l 104 0 l 117 60 l 549 527 l 550 530 l 277 530 l 251 410 q 248 395 240 388 q 233 382 224 382 q 217 382 213 386 q 208 391 208 397 q 208 401 210 410 l 244 571 l 598 571 l 586 513 l 153 45 l 152 41 l 467 41 l 497 184 q 500 199 507 206 q 515 212 523 212 q 531 212 535 207 q 540 203 540 197 q 540 192 538 184 z"},"x":{"x_min":0,"x_max":600,"ha":600,"o":"m 375 221 l 525 41 q 542 41 547 40 q 551 39 553 34 q 556 30 556 25 q 556 15 548 7 q 540 0 524 0 l 392 0 q 378 0 373 4 q 368 9 368 17 q 368 26 376 34 q 384 41 400 41 l 469 41 l 341 194 l 150 41 l 219 41 q 232 41 237 37 q 242 33 242 25 q 242 15 234 7 q 226 0 210 0 l 77 0 q 63 0 58 4 q 53 9 53 17 q 53 23 58 30 q 62 36 69 39 q 74 41 93 41 l 319 221 l 187 381 q 170 381 166 383 q 162 384 159 388 q 156 393 156 398 q 156 408 164 415 q 172 423 188 423 l 301 423 q 314 423 319 419 q 324 414 324 406 q 324 396 316 389 q 308 381 292 381 l 243 381 l 353 248 l 521 381 l 472 381 q 458 381 453 386 q 448 390 448 398 q 448 408 456 415 q 464 423 480 423 l 592 423 q 606 423 610 419 q 616 414 616 406 q 616 400 611 393 q 607 387 601 384 q 595 381 577 381 z"},")":{"x_min":0,"x_max":600,"ha":600,"o":"m 141 -127 q 133 -127 128 -122 q 124 -118 124 -111 q 124 -104 129 -96 q 229 34 271 143 q 314 252 314 362 q 314 460 274 579 q 272 586 272 588 q 272 598 280 605 q 288 613 298 613 q 304 613 309 608 q 324 593 349 506 q 374 419 374 355 q 374 268 350 194 q 326 119 290 59 q 253 -2 203 -66 q 166 -114 153 -122 q 147 -127 141 -127 z"},"&":{"x_min":0,"x_max":600,"ha":600,"o":"m 417 0 l 396 48 q 339 -16 270 -16 q 220 -16 186 19 q 152 54 152 109 q 152 169 193 220 q 233 272 300 291 q 280 340 276 355 q 271 371 271 384 q 271 436 318 481 q 365 526 424 526 q 441 526 457 521 q 472 517 486 506 q 510 517 515 517 q 522 517 527 512 q 531 508 531 501 q 531 494 527 487 q 522 481 509 475 l 474 458 q 461 472 447 478 q 433 485 416 485 q 377 485 345 454 q 313 423 313 389 q 313 361 337 303 l 413 123 q 454 179 487 252 l 527 252 q 538 252 541 251 q 545 249 548 245 q 550 241 550 236 q 550 229 546 223 q 541 216 534 213 q 529 211 509 211 q 469 130 428 83 l 447 41 l 482 41 q 496 41 500 37 q 505 33 505 25 q 505 15 497 7 q 489 0 473 0 z m 310 255 q 259 244 227 204 q 194 165 194 116 q 194 77 219 51 q 243 25 277 25 q 332 25 381 86 z"},"_":{"x_min":0,"x_max":600,"ha":600,"o":"m 528 -274 l -44 -274 q -55 -274 -58 -272 q -62 -271 -65 -267 q -67 -263 -67 -257 q -67 -248 -59 -240 q -51 -233 -35 -233 l 537 -233 q 550 -233 555 -236 q 561 -241 561 -249 q 561 -259 552 -267 q 544 -274 528 -274 z"},"v":{"x_min":0,"x_max":600,"ha":600,"o":"m 336 0 l 267 0 l 179 381 l 137 381 q 124 381 119 386 q 114 390 114 398 q 114 408 122 415 q 130 423 146 423 l 300 423 q 313 423 318 419 q 323 414 323 406 q 323 396 315 389 q 307 381 291 381 l 223 381 l 301 41 l 319 41 l 539 381 l 471 381 q 457 381 452 386 q 447 390 447 398 q 447 408 455 415 q 463 423 479 423 l 634 423 q 647 423 652 419 q 657 414 657 406 q 657 396 649 389 q 641 381 625 381 l 583 381 z"},"O":{"x_min":0,"x_max":600,"ha":600,"o":"m 297 -16 q 214 -16 158 44 q 103 104 103 207 q 103 288 135 361 q 167 434 216 484 q 265 535 318 560 q 371 584 425 584 q 523 584 571 515 q 619 446 619 364 q 619 266 571 175 q 522 83 447 34 q 371 -16 297 -16 z m 305 25 q 366 25 431 69 q 496 112 536 192 q 577 272 577 354 q 577 440 530 492 q 484 543 418 543 q 373 543 328 522 q 283 500 242 457 q 201 413 173 349 q 145 286 145 219 q 145 128 192 77 q 238 25 305 25 z"},"(":{"x_min":0,"x_max":600,"ha":600,"o":"m 570 613 q 577 613 582 608 q 587 604 587 597 q 587 590 581 582 q 481 452 439 342 q 396 233 396 124 q 396 25 436 -92 q 438 -100 438 -103 q 438 -112 430 -119 q 423 -126 413 -126 q 406 -126 402 -122 q 387 -106 362 -20 q 336 66 336 131 q 336 218 361 293 q 385 369 422 430 q 459 491 508 554 q 545 600 557 608 q 563 613 570 613 z"},"C":{"x_min":0,"x_max":600,"ha":600,"o":"m 595 515 l 602 544 q 604 559 612 565 q 619 571 628 571 q 635 571 640 567 q 645 562 645 556 q 645 552 643 544 l 618 430 q 615 415 608 409 q 601 402 592 402 q 585 402 580 407 q 576 412 576 417 q 576 421 577 427 q 578 433 578 439 q 578 477 542 505 q 495 543 428 543 q 381 543 334 523 q 299 507 276 485 q 233 444 206 398 q 187 366 177 324 l 162 252 q 157 229 157 207 q 157 129 208 77 q 259 25 334 25 q 386 25 432 47 q 479 70 529 117 q 540 127 550 127 q 558 127 562 123 q 566 119 566 113 q 566 103 555 91 q 508 41 446 12 q 384 -16 327 -16 q 278 -16 234 4 q 201 19 182 39 q 153 69 134 112 q 114 154 114 194 q 114 220 120 246 l 137 330 q 150 390 197 454 q 243 518 307 551 q 371 584 435 584 q 486 584 526 567 q 566 550 595 515 z"},"W":{"x_min":0,"x_max":600,"ha":600,"o":"m 480 0 l 416 0 l 386 406 l 186 0 l 121 0 l 174 530 l 159 530 q 145 530 140 534 q 135 539 135 547 q 135 557 143 564 q 151 571 167 571 l 320 571 q 333 571 338 567 q 343 563 343 555 q 343 545 335 538 q 327 530 311 530 l 215 530 l 167 47 l 362 445 l 425 445 l 454 47 l 610 530 l 514 530 q 500 530 495 534 q 490 539 490 547 q 490 557 498 564 q 506 571 522 571 l 674 571 q 688 571 693 567 q 698 563 698 555 q 698 548 693 541 q 688 535 681 532 q 676 530 650 530 z"},"A":{"x_min":0,"x_max":600,"ha":600,"o":"m 497 191 l 227 191 l 140 41 l 218 41 q 232 41 237 37 q 242 33 242 25 q 242 15 234 7 q 226 0 209 0 l 57 0 q 43 0 38 4 q 33 9 33 17 q 33 26 41 34 q 49 41 65 41 l 97 41 l 382 530 l 261 530 q 248 530 243 534 q 238 539 238 547 q 238 557 246 564 q 254 571 270 571 l 476 571 l 564 41 l 596 41 q 609 41 614 37 q 619 33 619 25 q 619 15 611 7 q 603 0 587 0 l 434 0 q 420 0 415 4 q 410 9 410 17 q 410 26 418 34 q 426 41 442 41 l 521 41 z m 490 232 l 440 530 l 425 530 l 251 232 z"},"f":{"x_min":0,"x_max":600,"ha":600,"o":"m 354 381 l 282 41 l 462 41 q 476 41 480 37 q 485 33 485 25 q 485 15 477 7 q 469 0 453 0 l 132 0 q 119 0 114 4 q 109 9 109 17 q 109 26 117 34 q 125 41 141 41 l 240 41 l 312 381 l 224 381 q 210 381 205 386 q 200 390 200 398 q 200 408 208 415 q 216 423 232 423 l 321 423 l 334 485 q 346 537 396 575 q 446 613 516 613 q 570 613 632 603 q 659 599 663 594 q 667 590 667 583 q 667 573 660 566 q 652 559 641 559 q 637 559 628 560 q 557 571 507 571 q 452 571 417 545 q 383 518 376 485 l 363 423 l 555 423 q 568 423 573 419 q 578 414 578 406 q 578 396 570 389 q 562 381 546 381 z"},"Q":{"x_min":0,"x_max":600,"ha":600,"o":"m 302 -16 l 239 -57 q 281 -49 308 -49 q 350 -49 389 -64 q 416 -76 432 -76 q 460 -76 500 -53 q 515 -44 521 -44 q 528 -44 533 -48 q 537 -52 537 -60 q 537 -68 531 -75 q 522 -86 485 -101 q 448 -117 420 -117 q 400 -117 366 -104 q 333 -90 299 -90 q 276 -90 240 -96 q 188 -104 157 -113 q 146 -115 142 -115 q 135 -115 130 -111 q 126 -106 126 -99 q 126 -86 142 -76 l 247 -10 q 185 5 144 63 q 103 121 103 207 q 103 288 135 361 q 167 434 216 484 q 265 535 318 560 q 371 584 425 584 q 508 584 564 524 q 619 464 619 361 q 619 265 571 175 q 523 84 448 35 q 374 -15 302 -16 z m 305 25 q 366 25 431 69 q 496 112 536 192 q 577 272 577 354 q 577 440 530 492 q 484 543 418 543 q 373 543 328 522 q 283 500 242 457 q 201 413 173 349 q 145 286 145 219 q 145 128 192 77 q 238 25 305 25 z"},"w":{"x_min":0,"x_max":600,"ha":600,"o":"m 442 0 l 391 0 l 356 263 l 211 0 l 160 0 l 156 381 l 136 381 q 123 381 118 386 q 113 390 113 398 q 113 408 121 415 q 129 423 145 423 l 258 423 q 271 423 276 419 q 281 414 281 406 q 281 396 273 389 q 265 381 249 381 l 197 381 l 201 56 l 343 316 l 392 316 l 426 56 l 565 381 l 514 381 q 500 381 495 386 q 490 390 490 398 q 490 408 498 415 q 506 423 522 423 l 635 423 q 648 423 653 419 q 658 414 658 406 q 658 396 650 389 q 642 381 626 381 l 606 381 z"},"-":{"x_min":0,"x_max":600,"ha":600,"o":"m 576 312 l 563 253 l 145 253 l 157 312 z"},"E":{"x_min":0,"x_max":600,"ha":600,"o":"m 225 276 l 175 41 l 491 41 l 516 162 q 520 177 527 183 q 534 189 543 189 q 550 189 554 185 q 559 181 559 175 q 559 170 558 162 l 523 0 l 70 0 q 57 0 52 4 q 47 9 47 17 q 47 26 55 34 q 63 41 79 41 l 134 41 l 238 530 l 183 530 q 169 530 165 534 q 160 539 160 547 q 160 557 168 564 q 176 571 192 571 l 623 571 l 593 430 q 590 415 583 409 q 576 403 566 403 q 559 403 554 407 q 550 412 550 417 q 550 422 552 430 l 573 530 l 279 530 l 234 317 l 381 317 l 391 363 q 394 378 401 384 q 408 391 417 391 q 424 391 429 386 q 434 382 434 375 q 434 372 432 363 l 404 229 q 400 215 393 208 q 386 202 377 202 q 370 202 365 207 q 361 211 361 217 q 361 222 362 229 l 372 276 z"},"s":{"x_min":0,"x_max":600,"ha":600,"o":"m 520 396 q 523 410 530 417 q 538 423 546 423 q 554 423 558 418 q 563 414 563 408 q 563 403 561 395 l 546 325 q 543 310 536 304 q 529 297 520 297 q 513 297 508 302 q 503 306 503 312 l 504 320 q 504 324 504 328 q 504 354 481 371 q 446 396 384 396 q 309 396 264 364 q 231 340 231 313 q 231 287 260 270 q 281 258 349 251 q 417 243 446 233 q 487 220 507 195 q 527 170 527 139 q 527 103 500 67 q 474 31 420 7 q 366 -16 298 -16 q 250 -16 212 -4 q 175 9 149 33 q 146 13 140 7 q 131 0 122 0 q 115 0 110 4 q 105 9 105 15 q 105 20 107 27 l 125 112 q 128 126 135 133 q 143 139 152 139 q 159 139 163 135 q 168 130 168 124 q 168 120 167 112 q 165 105 165 102 q 165 74 194 53 q 232 25 305 25 q 393 25 438 60 q 484 94 484 128 q 484 147 471 165 q 458 183 430 193 q 403 204 341 210 q 278 217 250 227 q 221 237 205 257 q 189 278 189 304 q 189 335 210 365 q 231 394 280 416 q 329 438 390 438 q 433 438 465 427 q 498 417 520 396 z"},">":{"x_min":0,"x_max":600,"ha":600,"o":"m 613 285 l 117 38 q 105 32 100 32 q 92 32 88 36 q 83 41 83 48 q 83 63 104 74 l 529 285 l 195 496 q 182 503 182 513 q 182 522 190 530 q 198 538 208 538 q 213 538 222 532 z"},"l":{"x_min":0,"x_max":600,"ha":600,"o":"m 452 613 l 330 41 l 491 41 q 505 41 510 37 q 515 33 515 25 q 515 15 507 7 q 499 0 482 0 l 119 0 q 105 0 101 4 q 96 9 96 17 q 96 26 104 34 q 112 41 128 41 l 289 41 l 402 571 l 283 571 q 270 571 265 576 q 260 580 260 588 q 260 598 268 605 q 276 613 292 613 z"},"8":{"x_min":0,"x_max":600,"ha":600,"o":"m 451 318 q 489 297 508 268 q 526 238 526 198 q 526 150 496 99 q 466 48 409 17 q 352 -15 295 -15 q 229 -15 187 27 q 144 68 144 128 q 144 185 180 236 q 216 288 284 318 q 249 341 233 366 q 217 392 217 429 q 217 465 236 501 q 254 538 283 565 q 312 592 351 610 q 390 627 435 627 q 498 627 538 588 q 578 549 578 491 q 578 441 548 397 q 518 352 451 318 z m 372 338 q 438 338 487 383 q 535 427 535 482 q 535 527 504 556 q 474 586 425 586 q 359 586 309 539 q 259 491 259 434 q 259 396 290 367 q 321 338 372 338 z m 305 26 q 381 26 433 80 q 484 133 484 189 q 484 235 451 266 q 418 298 364 298 q 292 298 239 248 q 186 198 186 138 q 186 90 219 58 q 251 26 305 26 z"},"\\":{"x_min":0,"x_max":600,"ha":600,"o":"m 293 657 l 472 -50 q 475 -58 475 -62 q 475 -70 467 -78 q 459 -85 449 -85 q 442 -85 438 -82 q 434 -78 431 -67 l 252 640 q 250 647 250 652 q 250 660 258 668 q 266 675 275 675 q 282 675 286 672 q 290 668 293 657 z"},"e":{"x_min":0,"x_max":600,"ha":600,"o":"m 565 202 l 147 202 q 146 187 146 179 q 146 112 191 68 q 237 25 314 25 q 360 25 413 40 q 466 55 504 80 q 516 87 522 87 q 529 87 533 83 q 538 78 538 71 q 538 62 530 54 q 507 30 440 7 q 373 -16 303 -16 q 213 -16 159 37 q 104 90 104 172 q 104 227 128 275 q 151 323 190 358 q 228 393 278 415 q 328 438 387 438 q 471 438 522 388 q 573 339 573 262 q 573 237 565 202 z m 532 243 q 535 311 492 354 q 449 396 377 396 q 307 396 246 354 q 185 313 156 243 z"},"b":{"x_min":0,"x_max":600,"ha":600,"o":"m 276 613 l 218 341 q 312 438 417 438 q 494 438 544 388 q 593 339 593 263 q 593 196 556 129 q 518 62 451 23 q 385 -16 322 -16 q 213 -16 163 81 l 146 0 l 49 0 q 36 0 31 4 q 26 9 26 17 q 26 26 34 34 q 42 41 58 41 l 113 41 l 226 571 l 171 571 q 157 571 152 576 q 147 580 147 588 q 147 598 156 605 q 164 613 180 613 z m 330 25 q 368 25 407 43 q 446 61 478 90 q 509 120 530 163 q 551 206 551 255 q 551 314 510 355 q 468 396 407 396 q 358 396 302 364 q 246 331 216 277 q 186 223 186 168 q 186 107 227 66 q 269 25 330 25 z"},"%":{"x_min":0,"x_max":600,"ha":600,"o":"m 344 369 q 301 369 272 397 q 244 426 244 470 q 244 528 292 575 q 339 623 400 623 q 443 623 472 594 q 500 566 500 524 q 500 463 452 416 q 405 369 344 369 z m 351 399 q 397 399 433 435 q 470 471 470 518 q 470 550 448 572 q 427 593 394 593 q 347 593 310 557 q 274 521 274 476 q 274 442 296 420 q 317 399 351 399 z m 600 354 l 193 230 q 187 229 183 229 q 179 229 175 232 q 172 235 172 240 q 172 246 176 250 q 180 255 190 259 l 597 382 q 604 384 607 384 q 612 384 615 381 q 618 377 618 373 q 618 367 614 362 q 610 357 600 354 z m 389 -12 q 346 -12 317 17 q 289 45 289 88 q 289 147 337 195 q 384 242 445 242 q 488 242 517 214 q 545 186 545 143 q 545 83 498 35 q 450 -12 389 -12 z m 396 18 q 442 18 479 54 q 515 90 515 137 q 515 169 493 190 q 472 212 438 212 q 392 212 355 176 q 319 140 319 94 q 319 61 341 39 q 362 18 396 18 z"},"m":{"x_min":0,"x_max":600,"ha":600,"o":"m 203 423 l 194 381 q 258 438 312 438 q 341 438 362 420 q 383 403 393 370 q 427 404 459 421 q 491 438 520 438 q 556 438 580 413 q 604 388 604 349 q 604 339 601 328 l 540 41 l 574 41 q 588 41 593 37 q 598 33 598 25 q 598 15 590 7 q 582 0 565 0 l 490 0 l 559 324 q 561 332 561 340 q 561 366 547 381 q 533 396 512 396 q 490 396 465 382 q 433 363 390 313 l 332 41 l 366 41 q 380 41 385 37 q 390 33 390 25 q 390 15 382 7 q 374 0 357 0 l 282 0 l 350 321 q 352 331 352 340 q 352 365 338 380 q 323 396 304 396 q 282 396 258 383 q 224 363 180 313 l 122 41 l 156 41 q 170 41 175 37 q 180 33 180 25 q 180 15 172 7 q 164 0 147 0 l 38 0 q 24 0 19 4 q 14 9 14 17 q 14 26 22 34 q 30 41 46 41 l 81 41 l 153 381 l 119 381 q 105 381 100 386 q 95 390 95 398 q 95 408 103 415 q 111 423 127 423 z"},"#":{"x_min":0,"x_max":600,"ha":600,"o":"m 468 361 l 432 232 l 510 232 q 524 232 528 229 q 534 224 534 216 q 534 206 526 199 q 518 191 501 191 l 420 191 l 355 -37 q 352 -52 344 -58 q 337 -63 329 -63 l 321 -62 q 312 -56 312 -48 q 312 -43 315 -34 l 379 191 l 287 191 l 222 -37 q 218 -52 211 -58 q 204 -63 196 -63 l 188 -62 q 179 -56 179 -48 q 179 -43 182 -34 l 245 191 l 160 191 q 146 191 142 195 q 136 200 136 208 q 136 218 144 225 q 152 232 168 232 l 257 232 l 293 361 l 217 361 q 203 361 198 366 q 193 370 193 378 q 193 388 201 395 q 209 402 226 402 l 305 402 l 369 631 q 374 645 381 651 q 388 657 396 657 l 404 655 q 413 649 413 641 q 413 637 410 628 l 346 402 l 438 402 l 503 631 q 507 645 514 651 q 521 657 529 657 l 537 655 q 546 649 546 641 q 546 637 543 628 l 479 402 l 567 402 q 581 402 584 399 q 590 394 590 386 q 590 376 582 369 q 574 361 558 361 z m 427 361 l 334 361 l 298 232 l 390 232 z"},",":{"x_min":0,"x_max":600,"ha":600,"o":"m 309 147 l 442 147 l 240 -122 q 221 -146 203 -146 q 192 -146 186 -140 q 179 -134 179 -124 q 179 -116 184 -106 z"},"n":{"x_min":0,"x_max":600,"ha":600,"o":"m 257 423 l 244 361 q 298 405 336 421 q 374 438 417 438 q 478 438 512 405 q 547 373 547 322 q 547 312 544 299 l 489 41 l 524 41 q 538 41 542 37 q 547 33 547 25 q 547 15 539 7 q 531 0 515 0 l 405 0 q 391 0 386 4 q 381 9 381 17 q 381 26 389 34 q 397 41 414 41 l 448 41 l 501 292 q 504 304 504 314 q 504 350 479 373 q 454 396 408 396 q 365 396 332 379 q 298 362 231 298 l 176 41 l 223 41 q 236 41 241 37 q 246 33 246 25 q 246 15 238 7 q 230 0 214 0 l 80 0 q 66 0 62 4 q 57 9 57 17 q 57 26 65 34 q 73 41 89 41 l 135 41 l 208 381 l 173 381 q 159 381 154 386 q 149 390 149 398 q 149 408 157 415 q 166 423 182 423 z"},"h":{"x_min":0,"x_max":600,"ha":600,"o":"m 296 613 l 242 360 q 291 403 331 420 q 370 438 414 438 q 477 438 511 405 q 546 373 546 323 q 546 310 543 295 l 489 41 l 535 41 q 549 41 554 37 q 559 33 559 25 q 559 15 551 7 q 542 0 526 0 l 393 0 q 379 0 374 4 q 369 9 369 17 q 369 26 377 34 q 385 41 401 41 l 448 41 l 501 292 q 503 303 503 314 q 503 351 478 374 q 453 396 404 396 q 363 396 333 381 q 302 366 229 301 l 174 41 l 221 41 q 234 41 239 37 q 244 33 244 25 q 244 15 236 7 q 228 0 212 0 l 78 0 q 64 0 60 4 q 55 9 55 17 q 55 26 63 34 q 71 41 87 41 l 133 41 l 246 571 l 191 571 q 177 571 172 576 q 167 580 167 588 q 167 598 176 605 q 184 613 200 613 z"},"z":{"x_min":0,"x_max":600,"ha":600,"o":"m 569 423 l 562 386 l 181 41 l 458 41 l 471 98 q 474 112 481 119 q 488 125 497 125 q 504 125 509 121 q 514 116 514 110 q 514 105 512 98 l 491 0 l 116 0 l 124 37 l 503 381 l 248 381 l 236 326 q 232 311 225 304 q 218 298 209 298 q 202 298 198 303 q 193 307 193 313 q 193 317 194 326 l 215 423 z"},"B":{"x_min":0,"x_max":600,"ha":600,"o":"m 134 41 l 238 530 l 183 530 q 169 530 164 534 q 159 539 159 547 q 159 557 167 564 q 175 571 191 571 l 449 571 q 517 571 555 536 q 593 501 593 452 q 593 405 566 367 q 539 330 484 302 q 535 282 557 252 q 580 222 580 185 q 580 149 560 112 q 540 74 512 51 q 484 28 441 11 q 412 0 376 0 l 70 0 q 56 0 51 4 q 46 9 46 17 q 46 26 54 34 q 62 41 79 41 z m 233 317 l 378 317 q 426 317 467 335 q 508 352 530 384 q 551 416 551 442 q 551 478 522 504 q 493 530 441 530 l 279 530 z m 175 41 l 382 41 q 423 41 460 61 q 496 82 517 114 q 537 146 537 175 q 537 223 495 250 q 454 276 372 276 l 225 276 z"},"K":{"x_min":0,"x_max":600,"ha":600,"o":"m 235 224 l 196 41 l 272 41 q 286 41 291 37 q 295 33 295 25 q 295 15 287 7 q 279 0 263 0 l 91 0 q 78 0 73 4 q 68 9 68 17 q 68 26 76 34 q 84 41 100 41 l 155 41 l 259 530 l 204 530 q 190 530 186 534 q 181 539 181 547 q 181 557 189 564 q 197 571 213 571 l 385 571 q 398 571 403 567 q 408 563 408 555 q 408 545 400 538 q 392 530 376 530 l 300 530 l 247 278 l 583 530 l 538 530 q 524 530 520 534 q 515 539 515 547 q 515 557 523 564 q 531 571 547 571 l 667 571 q 682 571 687 567 q 691 563 691 555 q 691 548 687 541 q 682 534 675 532 q 669 530 642 530 l 374 329 q 420 308 447 277 q 474 247 492 189 q 503 157 525 41 l 576 41 q 590 41 595 37 q 600 33 600 25 q 600 15 592 7 q 583 0 567 0 l 488 0 q 461 176 428 227 q 395 277 333 298 z"},"R":{"x_min":0,"x_max":600,"ha":600,"o":"m 221 255 l 176 41 l 251 41 q 265 41 270 37 q 275 33 275 25 q 275 15 267 7 q 259 0 243 0 l 71 0 q 57 0 52 4 q 47 9 47 17 q 47 26 55 34 q 63 41 80 41 l 135 41 l 239 530 l 184 530 q 170 530 165 534 q 160 539 160 547 q 160 557 168 564 q 176 571 192 571 l 440 571 q 507 571 549 532 q 591 494 591 440 q 591 389 550 342 q 509 295 416 266 q 453 236 476 198 q 499 161 543 41 l 575 41 q 588 41 593 37 q 598 33 598 25 q 598 15 590 7 q 582 0 566 0 l 511 0 q 465 136 432 182 q 400 229 351 255 z m 230 296 l 341 296 q 398 296 450 318 q 502 341 526 372 q 549 403 549 431 q 549 470 516 500 q 483 530 431 530 l 280 530 z"},"T":{"x_min":0,"x_max":600,"ha":600,"o":"m 433 530 l 329 41 l 436 41 q 449 41 454 37 q 459 33 459 25 q 459 15 451 7 q 443 0 427 0 l 172 0 q 159 0 154 4 q 149 9 149 17 q 149 26 157 34 q 165 41 181 41 l 288 41 l 392 530 l 224 530 l 193 388 q 190 373 183 367 q 176 360 167 360 q 160 360 155 365 q 150 370 150 375 q 150 380 152 388 l 191 571 l 651 571 l 612 388 q 609 373 602 367 q 594 360 585 360 q 578 360 573 365 q 569 370 569 375 q 569 380 571 388 l 601 530 z"},"P":{"x_min":0,"x_max":600,"ha":600,"o":"m 275 234 l 234 41 l 375 41 q 389 41 394 37 q 398 33 398 25 q 398 15 390 7 q 382 0 366 0 l 129 0 q 116 0 111 4 q 106 9 106 17 q 106 26 114 34 q 122 41 138 41 l 193 41 l 297 530 l 242 530 q 229 530 224 534 q 219 539 219 547 q 219 557 227 564 q 235 571 251 571 l 489 571 q 563 571 606 532 q 648 493 648 436 q 648 403 633 368 q 617 333 587 304 q 569 288 537 271 q 505 253 481 245 q 448 234 404 234 z m 284 275 l 415 275 q 462 275 517 301 q 558 321 582 357 q 606 393 606 425 q 606 469 573 500 q 541 530 484 530 l 338 530 z"},"|":{"x_min":0,"x_max":600,"ha":600,"o":"m 321 585 l 320 -99 q 320 -114 315 -120 q 309 -126 300 -126 q 291 -126 285 -120 q 279 -114 279 -99 l 279 585 q 279 600 285 606 q 291 613 300 613 q 309 613 315 606 q 321 600 321 585 z"},"t":{"x_min":0,"x_max":600,"ha":600,"o":"m 308 423 l 530 423 q 544 423 549 419 q 554 415 554 407 q 554 398 550 392 q 547 387 542 384 q 536 381 521 381 l 299 381 l 241 108 q 238 97 238 87 q 238 63 262 44 q 287 25 333 25 q 376 25 427 37 q 479 49 509 65 q 520 72 526 72 q 533 72 538 67 q 542 62 542 55 q 542 44 530 36 q 500 14 425 -3 q 371 -16 324 -16 q 263 -16 230 12 q 196 41 196 81 q 196 93 199 108 l 257 381 l 182 381 q 168 381 163 386 q 158 390 158 398 q 158 408 166 415 q 174 423 190 423 l 266 423 l 292 544 q 295 559 302 565 q 310 571 319 571 q 326 571 330 567 q 335 562 335 556 q 335 552 333 544 z"},"M":{"x_min":0,"x_max":600,"ha":600,"o":"m 364 171 l 316 171 l 235 530 l 228 530 l 124 41 l 199 41 q 213 41 218 37 q 223 33 223 25 q 223 15 215 7 q 207 0 190 0 l 39 0 q 25 0 21 4 q 16 9 16 17 q 16 26 24 34 q 32 41 48 41 l 82 41 l 186 530 l 161 530 q 147 530 142 534 q 137 539 137 547 q 137 557 145 564 q 153 571 169 571 l 270 571 l 350 218 l 578 571 l 679 571 q 692 571 697 567 q 702 563 702 555 q 702 545 694 538 q 686 530 670 530 l 645 530 l 541 41 l 575 41 q 589 41 594 37 q 599 33 599 25 q 599 15 590 7 q 582 0 566 0 l 415 0 q 401 0 396 4 q 391 9 391 17 q 391 26 399 34 q 408 41 424 41 l 499 41 l 603 530 l 595 530 z"},"g":{"x_min":0,"x_max":600,"ha":600,"o":"m 512 348 l 528 423 l 624 423 q 638 423 642 419 q 648 414 648 406 q 648 396 640 389 q 631 381 615 381 l 561 381 l 473 -28 q 465 -68 441 -100 q 425 -123 391 -146 q 357 -169 334 -179 q 311 -188 272 -188 l 156 -188 q 143 -188 138 -184 q 133 -180 133 -172 q 133 -162 141 -155 q 149 -147 165 -147 l 283 -147 q 317 -147 350 -130 q 383 -112 411 -75 q 426 -55 433 -22 l 459 101 q 374 10 269 10 q 198 10 151 58 q 104 105 104 180 q 104 232 128 281 q 153 329 188 362 q 222 395 266 416 q 311 438 361 438 q 465 438 512 348 z m 280 52 q 321 52 358 69 q 395 86 424 114 q 453 142 471 182 q 490 222 490 263 q 490 320 452 358 q 414 396 356 396 q 274 396 210 332 q 146 268 146 188 q 146 128 184 90 q 222 52 280 52 z"},"j":{"x_min":0,"x_max":600,"ha":600,"o":"m 493 633 l 471 527 l 411 527 l 433 633 z m 442 381 l 199 381 q 185 381 180 386 q 175 390 175 398 q 175 408 183 415 q 191 423 208 423 l 492 423 l 396 -29 q 385 -83 355 -117 q 326 -152 278 -174 q 246 -188 206 -188 l 75 -188 q 62 -188 57 -184 q 52 -180 52 -172 q 52 -162 60 -155 q 68 -147 84 -147 l 213 -147 q 266 -147 299 -118 q 344 -80 355 -29 z"},"i":{"x_min":0,"x_max":600,"ha":600,"o":"m 455 633 l 432 527 l 372 527 l 395 633 z m 412 423 l 331 41 l 492 41 q 505 41 510 37 q 515 33 515 25 q 515 15 507 7 q 499 0 483 0 l 120 0 q 106 0 101 4 q 96 9 96 17 q 96 26 104 34 q 112 41 128 41 l 290 41 l 362 381 l 242 381 q 229 381 223 386 q 218 390 218 398 q 218 408 227 415 q 235 423 251 423 z"},"y":{"x_min":0,"x_max":600,"ha":600,"o":"m 279 0 l 170 381 l 158 381 q 144 381 139 386 q 134 390 134 398 q 134 404 138 411 q 142 417 148 420 q 154 423 167 423 l 278 423 q 289 423 293 421 q 297 419 299 416 q 302 412 302 406 q 302 396 294 389 q 286 381 270 381 l 215 381 l 310 45 l 547 381 l 492 381 q 479 381 473 386 q 468 390 468 398 q 468 408 476 415 q 484 423 501 423 l 613 423 q 626 423 630 419 q 636 414 636 406 q 636 399 632 393 q 627 386 620 383 q 615 381 591 381 l 219 -147 l 283 -147 q 294 -147 298 -149 q 302 -150 304 -155 q 307 -159 307 -164 q 307 -174 299 -181 q 291 -188 274 -188 l 38 -188 q 24 -188 20 -184 q 15 -180 15 -172 q 15 -162 23 -155 q 31 -147 47 -147 l 176 -147 z"},"@":{"x_min":0,"x_max":600,"ha":600,"o":"m 451 147 l 452 153 q 427 149 410 149 q 357 149 327 178 q 297 207 297 250 q 297 306 342 354 q 405 422 509 422 l 520 470 q 522 483 522 498 q 522 542 497 567 q 472 592 429 592 q 391 592 356 572 q 320 552 280 497 q 240 442 224 363 l 189 202 q 182 167 182 133 q 182 53 219 9 q 246 -22 303 -22 q 376 -22 420 12 q 430 20 438 20 q 445 20 449 16 q 454 11 454 4 q 454 -4 447 -12 q 428 -33 385 -48 q 341 -63 288 -63 q 221 -63 186 -22 q 139 32 139 123 q 139 160 148 202 l 183 366 q 209 492 293 570 q 360 633 438 633 q 495 633 530 598 q 564 563 564 504 q 564 488 561 470 l 501 188 q 509 188 513 184 q 517 180 517 173 q 517 167 513 160 q 509 153 503 150 q 497 147 484 147 z m 500 382 q 429 381 384 343 q 339 305 339 260 q 339 229 360 209 q 381 190 424 190 q 440 190 461 194 z"},".":{"x_min":0,"x_max":600,"ha":600,"o":"m 316 118 l 334 118 q 357 118 373 103 q 388 88 388 65 q 388 34 363 10 q 338 -15 306 -15 l 288 -15 q 264 -15 249 0 q 234 15 234 38 q 234 69 259 94 q 284 118 316 118 z"},"p":{"x_min":0,"x_max":600,"ha":600,"o":"m 235 423 l 220 348 q 267 394 313 416 q 360 438 417 438 q 498 438 546 390 q 595 343 595 269 q 595 169 513 90 q 432 10 326 10 q 216 10 167 100 l 114 -147 l 213 -147 q 225 -147 228 -149 q 232 -150 235 -155 q 237 -159 237 -164 q 237 -174 229 -181 q 221 -188 205 -188 l 9 -188 q -4 -188 -9 -184 q -14 -180 -14 -172 q -14 -162 -6 -155 q 2 -147 18 -147 l 73 -147 l 186 381 l 130 381 q 117 381 112 386 q 107 390 107 398 q 107 408 115 415 q 123 423 139 423 z m 333 52 q 420 52 486 116 q 552 180 552 261 q 552 318 512 357 q 472 396 409 396 q 322 396 256 332 q 189 268 189 189 q 189 130 230 91 q 270 52 333 52 z"},"X":{"x_min":0,"x_max":600,"ha":600,"o":"m 387 292 l 528 41 l 543 41 q 558 41 562 37 q 567 33 567 25 q 567 15 559 7 q 551 0 535 0 l 403 0 q 390 0 385 4 q 380 9 380 17 q 380 26 388 34 q 396 41 412 41 l 478 41 l 354 259 l 141 41 l 206 41 q 220 41 225 37 q 229 33 229 25 q 229 15 221 7 q 213 0 197 0 l 66 0 q 53 0 48 4 q 43 9 43 17 q 43 23 48 30 q 53 37 60 40 q 64 41 90 41 l 336 292 l 203 530 l 188 530 q 174 530 169 534 q 165 539 165 547 q 165 557 173 564 q 181 571 197 571 l 309 571 q 322 571 327 567 q 332 563 332 555 q 332 545 324 538 q 316 530 300 530 l 253 530 l 369 326 l 569 530 l 523 530 q 509 530 504 534 q 500 539 500 547 q 500 557 508 564 q 516 571 532 571 l 644 571 q 658 571 663 567 q 667 563 667 555 q 667 548 663 541 q 658 535 651 532 q 646 530 620 530 z"},"*":{"x_min":0,"x_max":600,"ha":600,"o":"m 372 445 l 402 585 q 405 600 412 606 q 419 613 429 613 q 436 613 440 608 q 445 604 445 598 q 445 593 443 585 l 413 445 l 556 488 q 566 491 571 491 q 577 491 582 487 q 586 482 586 476 q 586 467 581 460 q 575 453 561 449 l 418 405 l 476 292 q 480 283 480 277 q 480 269 473 261 q 465 253 455 253 q 445 253 438 268 l 379 381 l 272 268 q 259 253 249 253 q 241 253 237 258 q 232 263 232 271 q 232 279 244 292 l 351 406 l 227 449 q 216 453 213 456 q 210 460 210 466 q 210 476 218 484 q 225 491 234 491 q 239 491 248 488 z"},"Y":{"x_min":0,"x_max":600,"ha":600,"o":"m 376 258 l 330 41 l 437 41 q 450 41 455 37 q 460 33 460 25 q 460 15 452 7 q 444 0 428 0 l 173 0 q 160 0 155 4 q 150 9 150 17 q 150 26 158 34 q 166 41 182 41 l 289 41 l 335 258 l 212 530 l 188 530 q 174 530 169 534 q 165 539 165 547 q 165 557 173 564 q 181 571 197 571 l 310 571 q 323 571 328 567 q 333 563 333 555 q 333 545 325 538 q 317 530 301 530 l 260 530 l 364 299 l 563 530 l 523 530 q 509 530 504 534 q 500 539 500 547 q 500 557 508 564 q 516 571 532 571 l 645 571 q 658 571 663 567 q 668 563 668 555 q 668 545 660 538 q 652 530 636 530 l 611 530 z"},"c":{"x_min":0,"x_max":600,"ha":600,"o":"m 552 381 q 558 409 563 415 q 572 423 582 423 q 589 423 594 418 q 598 414 598 408 q 598 403 597 395 l 577 302 q 573 287 566 281 q 559 274 550 274 q 543 274 538 279 q 534 283 534 289 q 534 292 535 299 q 535 303 535 307 q 535 340 504 364 q 463 396 395 396 q 335 396 283 367 q 230 338 197 280 q 165 223 165 167 q 165 103 205 64 q 246 25 317 25 q 364 25 417 42 q 471 60 520 99 q 532 109 541 109 q 547 109 552 105 q 556 101 556 94 q 556 84 546 74 q 512 38 443 11 q 374 -16 303 -16 q 221 -16 171 31 q 122 79 122 155 q 122 213 147 266 q 171 319 209 355 q 247 392 296 415 q 345 438 406 438 q 453 438 490 424 q 526 410 552 381 z"},"!":{"x_min":0,"x_max":600,"ha":600,"o":"m 461 571 l 372 240 q 368 224 361 218 q 354 212 345 212 q 338 212 334 217 q 330 221 330 229 q 330 232 331 240 l 383 571 q 388 602 401 615 q 415 627 434 627 q 448 627 457 619 q 466 610 466 599 q 466 591 461 571 z m 309 87 l 329 87 q 347 87 358 75 q 370 64 370 47 q 370 22 351 4 q 332 -15 307 -15 l 288 -15 q 270 -15 258 -3 q 247 8 247 25 q 247 50 266 68 q 285 87 309 87 z"},"/":{"x_min":0,"x_max":600,"ha":600,"o":"m 621 643 l 141 -64 q 133 -76 128 -79 q 123 -83 116 -83 q 108 -83 104 -78 q 99 -73 99 -66 q 99 -59 107 -47 l 587 660 q 595 671 601 675 q 606 678 613 678 q 621 678 625 674 q 630 669 630 662 q 630 655 621 643 z"},"[":{"x_min":0,"x_max":600,"ha":600,"o":"m 442 571 l 303 -85 l 402 -85 q 416 -85 421 -90 q 426 -94 426 -102 q 426 -112 417 -119 q 409 -126 394 -126 l 253 -126 l 410 613 l 550 613 q 562 613 565 611 q 569 609 572 605 q 574 601 574 596 q 574 586 566 579 q 558 571 542 571 z"},"6":{"x_min":0,"x_max":600,"ha":600,"o":"m 233 259 q 285 317 331 343 q 377 369 426 369 q 480 369 518 329 q 556 289 556 223 q 556 176 534 129 q 513 83 482 52 q 451 21 415 3 q 378 -15 335 -15 q 270 -15 228 33 q 187 80 187 183 q 187 319 243 422 q 300 525 409 584 q 488 627 565 627 q 602 627 626 613 q 637 606 637 596 q 637 586 630 579 q 623 571 614 571 q 607 571 599 576 q 582 586 552 586 q 497 586 437 556 q 377 525 329 474 q 282 423 258 364 q 242 324 233 259 z m 228 191 q 228 102 260 64 q 291 26 346 26 q 409 26 461 83 q 514 141 514 216 q 514 266 485 297 q 456 328 416 328 q 368 328 316 289 q 280 262 228 191 z"},"r":{"x_min":0,"x_max":600,"ha":600,"o":"m 341 423 l 319 319 q 416 393 460 413 q 503 433 537 433 q 570 433 596 411 q 623 388 623 375 q 623 365 615 357 q 607 350 597 350 q 592 350 589 351 q 586 353 579 362 q 565 379 554 386 q 542 392 531 392 q 503 392 461 371 q 419 349 308 266 l 260 41 l 441 41 q 456 41 460 37 q 465 33 465 25 q 465 15 457 7 q 449 0 433 0 l 111 0 q 97 0 92 4 q 87 8 87 16 q 87 25 95 32 q 103 40 119 40 l 218 40 l 291 381 l 215 381 q 202 381 197 386 q 192 390 192 397 q 192 408 200 415 q 208 423 224 423 z"},"2":{"x_min":0,"x_max":600,"ha":600,"o":"m 132 41 l 447 41 q 454 71 459 76 q 467 84 478 84 q 484 84 489 80 q 494 76 494 70 q 494 65 492 57 l 480 0 l 83 0 l 97 61 q 255 181 397 296 q 465 352 491 380 q 517 408 527 430 q 537 453 537 476 q 537 522 504 554 q 470 586 419 586 q 365 586 317 556 q 269 525 246 479 q 236 459 221 459 q 214 459 209 463 q 205 468 205 474 q 205 491 230 524 q 268 574 321 601 q 374 627 429 627 q 493 627 536 585 q 579 543 579 483 q 579 455 567 425 q 555 396 527 365 q 499 334 433 279 q 250 129 133 44 z"},"{":{"x_min":0,"x_max":600,"ha":600,"o":"m 328 243 q 344 228 350 217 q 357 203 357 185 q 357 172 354 156 l 316 -20 q 314 -28 314 -37 q 314 -57 327 -71 q 339 -84 358 -85 q 373 -86 376 -90 q 381 -94 381 -102 q 381 -112 373 -119 q 365 -127 352 -127 q 317 -127 295 -104 q 272 -81 272 -44 q 272 -33 275 -20 l 312 156 q 314 164 314 172 q 314 193 302 206 q 289 220 269 221 q 257 222 253 226 q 249 230 249 238 q 249 249 256 256 q 263 263 278 265 q 304 267 324 285 q 344 304 349 330 l 387 506 q 396 552 432 583 q 468 613 509 613 q 520 613 524 608 q 529 604 529 596 q 529 587 522 580 q 515 573 498 571 q 473 569 453 551 q 434 532 428 506 l 391 330 q 384 300 371 281 q 357 262 328 243 z"},"9":{"x_min":0,"x_max":600,"ha":600,"o":"m 542 347 q 498 291 448 262 q 399 234 351 234 q 296 234 258 274 q 221 314 221 383 q 221 465 284 546 q 347 627 440 627 q 505 627 547 579 q 589 530 589 429 q 589 338 563 252 q 546 198 520 157 q 493 116 444 74 q 395 33 335 9 q 275 -15 216 -15 q 177 -15 152 0 q 140 7 140 17 q 140 26 147 34 q 155 41 165 41 q 171 41 181 36 q 198 26 223 26 q 271 26 318 44 q 366 62 406 92 q 446 123 473 156 q 500 190 515 230 q 530 271 542 347 z m 549 415 q 544 514 513 550 q 483 586 432 586 q 370 586 316 527 q 263 469 263 391 q 263 338 292 307 q 321 275 363 275 q 408 275 457 312 q 493 340 549 415 z"}," ":{"x_min":0,"x_max":600,"ha":600,"o":""},"I":{"x_min":0,"x_max":600,"ha":600,"o":"m 434 530 l 330 41 l 470 41 q 484 41 489 37 q 494 33 494 25 q 494 15 486 7 q 478 0 461 0 l 139 0 q 125 0 121 4 q 116 9 116 17 q 116 26 124 34 q 132 41 148 41 l 289 41 l 393 530 l 252 530 q 238 530 233 534 q 229 539 229 547 q 229 557 237 564 q 245 571 261 571 l 583 571 q 597 571 602 567 q 606 563 606 555 q 606 545 598 538 q 590 530 574 530 z"},"H":{"x_min":0,"x_max":600,"ha":600,"o":"m 497 276 l 225 276 l 175 41 l 221 41 q 244 41 249 37 q 253 33 253 25 q 253 15 245 7 q 237 0 221 0 l 79 0 q 65 0 61 6 q 56 11 56 19 q 56 29 64 35 q 71 41 87 41 l 134 41 l 238 530 l 192 530 q 171 530 164 534 q 157 538 158 548 q 158 558 165 564 q 171 570 192 572 l 330 572 q 347 569 352 568 q 356 566 358 556 q 358 546 352 539 q 346 532 325 530 l 279 530 l 233 317 l 506 317 l 551 530 l 504 530 q 482 530 477 534 q 472 539 472 547 q 472 557 480 564 q 488 571 504 571 l 626 571 q 653 571 661 567 q 669 564 670 555 q 671 545 664 539 q 657 532 639 530 l 592 530 l 488 41 l 534 41 q 554 42 560 35 q 566 29 566 21 q 566 11 556 5 q 546 0 525 0 l 393 0 q 379 0 374 4 q 368 7 368 15 q 368 25 373 32 q 377 39 400 41 l 447 41 z"},"4":{"x_min":0,"x_max":600,"ha":600,"o":"m 413 171 l 141 171 l 151 219 l 463 613 l 548 613 l 463 212 l 498 212 q 511 212 516 209 q 521 204 521 196 q 521 186 513 179 q 505 171 489 171 l 455 171 l 427 41 l 461 41 q 475 41 480 37 q 485 33 485 25 q 485 15 477 7 q 469 0 453 0 l 300 0 q 286 0 281 4 q 276 9 276 17 q 276 26 284 34 q 292 41 309 41 l 386 41 z m 422 212 l 498 571 l 477 571 l 193 212 z"},"~":{"x_min":0,"x_max":600,"ha":600,"o":"m 559 326 q 565 326 570 322 q 575 317 575 311 q 575 302 565 292 q 532 254 489 229 q 458 211 434 211 q 413 211 393 223 q 373 235 344 268 q 316 302 303 310 q 291 318 280 318 q 264 318 247 308 q 230 299 194 266 q 178 250 173 247 q 168 245 163 245 q 156 245 151 249 q 147 253 147 260 q 147 271 170 293 q 193 315 219 333 q 254 359 287 359 q 307 359 324 350 q 341 341 367 312 q 408 265 418 259 q 428 252 439 252 q 474 252 523 302 q 542 320 547 323 q 553 326 559 326 z"},"D":{"x_min":0,"x_max":600,"ha":600,"o":"m 142 41 l 246 530 l 211 530 q 198 530 193 534 q 188 539 188 547 q 188 557 196 564 q 204 571 220 571 l 440 571 q 520 571 573 516 q 625 460 625 368 q 625 344 619 314 l 606 257 q 593 194 552 134 q 511 74 432 29 q 380 0 319 0 l 99 0 q 85 0 80 4 q 75 9 75 17 q 75 26 83 34 q 91 41 107 41 z m 183 41 l 332 41 q 365 41 393 52 q 421 62 467 97 q 499 122 527 164 q 555 207 563 249 l 579 323 q 583 342 583 358 q 583 437 541 483 q 498 530 436 530 l 287 530 z"},"^":{"x_min":0,"x_max":600,"ha":600,"o":"m 433 625 l 564 398 q 570 389 570 384 q 570 375 562 367 q 555 360 544 360 q 535 360 527 373 l 419 560 l 232 373 q 219 359 208 359 q 201 359 197 364 q 192 369 192 376 q 192 381 194 385 q 196 390 205 398 z"},"0":{"x_min":0,"x_max":600,"ha":600,"o":"m 564 357 l 542 255 q 515 123 436 46 q 373 -15 299 -15 q 250 -15 218 9 q 185 32 173 70 q 156 124 156 171 q 156 208 166 255 l 188 357 q 216 490 295 567 q 357 627 431 627 q 480 627 513 604 q 546 581 558 542 q 574 488 574 441 q 574 404 564 357 z m 522 352 q 530 389 530 421 q 530 488 516 522 q 502 556 480 571 q 458 586 424 586 q 355 586 301 515 q 248 444 228 352 l 208 261 q 201 223 201 192 q 201 125 214 91 q 228 57 250 42 q 273 26 306 26 q 375 26 429 97 q 483 168 502 261 z"},"F":{"x_min":0,"x_max":600,"ha":600,"o":"m 269 276 l 219 41 l 360 41 q 374 41 378 37 q 383 33 383 25 q 383 15 375 7 q 367 0 351 0 l 114 0 q 101 0 96 4 q 91 9 91 17 q 91 26 99 34 q 107 41 123 41 l 178 41 l 282 530 l 227 530 q 213 530 208 534 q 204 539 204 547 q 204 557 212 564 q 220 571 236 571 l 687 571 l 657 430 q 654 415 647 409 q 640 403 630 403 q 624 403 619 407 q 614 412 614 417 q 614 422 616 430 l 637 530 l 323 530 l 278 317 l 425 317 l 435 363 q 438 378 445 384 q 452 391 461 391 q 468 391 473 386 q 478 382 478 375 q 478 372 476 363 l 448 229 q 444 215 437 208 q 430 202 421 202 q 414 202 409 207 q 405 211 405 217 q 405 222 406 229 l 416 276 z"},"`":{"x_min":0,"x_max":600,"ha":600,"o":"m 324 639 l 418 540 q 427 527 427 524 q 427 514 419 506 q 411 499 401 499 q 393 499 384 508 l 290 608 q 282 617 282 624 q 282 633 290 641 q 297 649 308 649 q 312 649 315 647 q 318 646 324 639 z"},"k":{"x_min":0,"x_max":600,"ha":600,"o":"m 227 183 l 188 0 l 91 0 q 78 0 73 4 q 68 9 68 17 q 68 26 76 34 q 84 41 100 41 l 155 41 l 268 571 l 213 571 q 199 571 194 576 q 189 580 189 588 q 189 598 198 605 q 206 613 222 613 l 318 613 l 237 235 l 443 381 l 422 381 q 408 381 403 386 q 398 390 398 398 q 398 408 406 415 q 415 423 431 423 l 562 423 q 576 423 580 419 q 586 414 586 406 q 586 396 578 389 q 569 381 553 381 l 506 381 l 317 248 l 476 41 l 523 41 q 537 41 542 37 q 547 33 547 25 q 547 15 539 7 q 531 0 515 0 l 382 0 q 368 0 363 4 q 358 9 358 17 q 358 26 366 34 q 375 41 391 41 l 419 41 l 282 222 z"},"u":{"x_min":0,"x_max":600,"ha":600,"o":"m 440 0 l 453 60 q 353 -16 254 -16 q 205 -16 177 12 q 148 40 148 83 q 148 99 152 117 l 208 381 l 153 381 q 139 381 134 386 q 129 390 129 398 q 129 408 137 415 q 146 423 162 423 l 258 423 l 193 117 q 191 106 191 96 q 191 63 210 44 q 229 25 262 25 q 363 25 465 117 l 521 381 l 446 381 q 432 381 427 386 q 422 390 422 398 q 422 408 430 415 q 438 423 455 423 l 571 423 l 490 41 l 525 41 q 539 41 543 37 q 548 33 548 25 q 548 15 540 7 q 532 0 516 0 z"},"]":{"x_min":0,"x_max":600,"ha":600,"o":"m 263 -85 l 402 571 l 303 571 q 290 571 285 575 q 280 580 280 588 q 280 598 288 605 q 296 613 312 613 l 453 613 l 295 -126 l 155 -126 q 141 -126 137 -123 q 131 -118 131 -110 q 131 -100 139 -93 q 147 -85 164 -85 z"},"U":{"x_min":0,"x_max":600,"ha":600,"o":"m 611 530 l 539 188 q 520 100 449 42 q 379 -16 295 -16 q 226 -16 182 28 q 137 73 137 145 q 137 164 142 188 l 215 530 l 181 530 q 167 530 162 534 q 157 539 157 546 q 157 557 165 564 q 173 571 189 571 l 341 571 q 354 571 359 567 q 364 563 364 555 q 364 545 356 538 q 348 530 332 530 l 256 530 l 184 188 q 180 170 180 152 q 180 97 215 61 q 250 25 303 25 q 344 25 382 43 q 419 61 453 100 q 487 140 497 188 l 570 530 l 495 530 q 481 530 476 534 q 471 539 471 547 q 471 557 479 564 q 487 571 503 571 l 654 571 q 668 571 673 567 q 678 563 678 555 q 678 545 670 538 q 662 530 646 530 z"},"o":{"x_min":0,"x_max":600,"ha":600,"o":"m 295 -16 q 214 -16 163 35 q 111 86 111 165 q 111 229 150 295 q 189 361 257 399 q 325 438 395 438 q 475 438 527 387 q 579 336 579 260 q 579 194 541 128 q 503 63 434 23 q 366 -16 295 -16 z m 304 25 q 362 25 418 57 q 475 90 506 144 q 537 197 537 251 q 537 313 494 354 q 452 396 386 396 q 338 396 298 377 q 257 358 225 329 q 194 299 173 258 q 153 217 153 173 q 153 109 195 67 q 238 25 304 25 z"},"N":{"x_min":0,"x_max":600,"ha":600,"o":"m 501 0 l 449 0 l 255 511 l 155 41 l 231 41 q 245 41 250 37 q 254 33 254 25 q 254 15 246 7 q 238 0 222 0 l 71 0 q 57 0 52 4 q 47 9 47 17 q 47 26 55 34 q 63 41 80 41 l 114 41 l 218 530 l 163 530 q 149 530 145 534 q 140 539 140 547 q 140 557 148 564 q 156 571 172 571 l 279 571 l 473 59 l 573 530 l 497 530 q 483 530 479 534 q 474 539 474 547 q 474 557 482 564 q 490 571 506 571 l 657 571 q 671 571 676 567 q 681 563 681 555 q 681 545 673 538 q 665 530 648 530 l 614 530 z"},"+":{"x_min":0,"x_max":600,"ha":600,"o":"m 377 265 l 333 60 q 330 45 323 39 q 316 33 307 33 q 300 33 295 37 q 291 42 291 47 q 291 52 292 60 l 335 265 l 154 265 q 140 265 135 269 q 130 273 130 281 q 130 292 138 299 q 146 306 163 306 l 344 306 l 388 510 q 391 525 398 531 q 405 538 415 538 q 421 538 426 533 q 431 529 431 522 q 431 519 429 510 l 386 306 l 567 306 q 578 306 582 304 q 586 303 588 299 q 591 295 591 290 q 591 280 583 272 q 575 265 559 265 z"},"G":{"x_min":0,"x_max":600,"ha":600,"o":"m 568 212 l 531 36 q 426 -16 331 -16 q 218 -16 155 49 q 108 98 108 184 q 108 213 115 247 l 131 322 q 146 390 193 454 q 240 518 306 551 q 371 584 438 584 q 488 584 527 571 q 566 558 594 530 q 600 558 605 563 q 614 571 624 571 q 631 571 635 567 q 640 562 640 556 q 640 552 639 544 l 619 451 q 616 436 609 430 q 602 424 592 424 q 585 424 581 428 q 577 432 577 438 q 577 441 578 449 q 579 454 579 458 q 579 489 549 511 q 504 543 433 543 q 375 543 323 518 q 272 492 215 419 q 184 378 172 322 l 156 247 q 150 216 150 187 q 150 115 200 70 q 250 25 343 25 q 380 25 414 32 q 447 40 495 60 l 527 212 l 386 212 q 372 212 367 216 q 362 221 362 229 q 362 238 370 246 q 378 253 395 253 l 591 253 q 605 253 609 250 q 615 245 615 237 q 615 230 610 223 q 605 216 599 214 q 593 212 568 212 z"},"q":{"x_min":0,"x_max":600,"ha":600,"o":"m 533 348 l 549 423 l 646 423 q 659 423 664 418 q 669 414 669 406 q 669 396 661 389 q 653 381 637 381 l 582 381 l 469 -147 l 524 -147 q 535 -147 539 -149 q 542 -150 545 -155 q 548 -159 548 -164 q 548 -174 540 -181 q 531 -188 515 -188 l 320 -188 q 306 -188 301 -184 q 296 -180 296 -172 q 296 -162 304 -155 q 312 -147 329 -147 l 428 -147 l 480 100 q 394 10 283 10 q 204 10 155 58 q 105 106 105 179 q 105 241 142 303 q 178 365 243 401 q 308 438 375 438 q 484 438 533 348 z m 291 52 q 346 52 399 82 q 452 112 481 161 q 510 211 510 260 q 510 318 470 357 q 430 396 367 396 q 280 396 214 332 q 147 268 147 189 q 147 130 188 91 q 228 52 291 52 z"},"d":{"x_min":0,"x_max":600,"ha":600,"o":"m 631 613 l 509 41 l 564 41 q 578 41 583 37 q 588 33 588 25 q 588 15 580 7 q 572 0 556 0 l 459 0 l 477 82 q 385 -16 273 -16 q 199 -16 150 34 q 101 83 101 164 q 101 229 140 296 q 180 363 244 400 q 309 438 372 438 q 479 438 532 340 l 581 571 l 526 571 q 512 571 507 576 q 502 580 502 588 q 502 598 510 605 q 519 613 535 613 z m 285 25 q 329 25 367 43 q 406 62 438 92 q 469 123 489 166 q 508 208 508 253 q 508 315 468 355 q 428 396 367 396 q 280 396 212 327 q 143 258 143 171 q 143 106 183 66 q 224 25 285 25 z"},"1":{"x_min":0,"x_max":600,"ha":600,"o":"m 452 621 l 329 41 l 470 41 q 483 41 488 37 q 493 33 493 25 q 493 15 485 7 q 477 0 461 0 l 139 0 q 125 0 120 4 q 115 9 115 17 q 115 26 123 34 q 131 41 147 41 l 288 41 l 399 564 l 256 522 q 246 520 241 520 q 235 520 231 524 q 227 529 227 536 q 227 544 232 551 q 237 558 252 562 z"},"5":{"x_min":0,"x_max":600,"ha":600,"o":"m 309 571 l 266 371 q 305 386 340 393 q 375 401 405 401 q 470 401 510 361 q 549 321 549 255 q 549 189 513 123 q 477 56 417 21 q 356 -15 292 -15 q 243 -15 199 4 q 155 23 124 59 q 113 71 113 78 q 113 88 120 96 q 128 104 137 104 q 146 104 153 95 q 212 26 299 26 q 353 26 400 55 q 448 84 478 139 q 507 194 507 246 q 507 298 476 329 q 445 360 392 360 q 328 360 257 326 q 240 318 233 318 q 226 318 222 323 q 217 327 217 333 q 217 337 218 341 l 276 613 l 562 613 q 573 613 577 611 q 581 609 583 605 q 586 602 586 596 q 586 586 578 579 q 569 571 553 571 z"}}}
